<?xml version="1.0" standalone="no"?><!DOCTYPE svg PUBLIC "-//W3C//DTD SVG 1.1//EN" "http://www.w3.org/Graphics/SVG/1.1/DTD/svg11.dtd"><svg t="1646148486229" class="icon" viewBox="0 0 1024 1024" version="1.1" xmlns="http://www.w3.org/2000/svg" p-id="4834" xmlns:xlink="http://www.w3.org/1999/xlink" width="200" height="200"><defs><style type="text/css"></style></defs><path d="M512 0c30.72 0 51.2 20.48 51.2 51.2v307.2c0 30.72-20.48 51.2-51.2 51.2s-51.2-20.48-51.2-51.2V51.2c0-30.72 20.48-51.2 51.2-51.2z" p-id="4835"></path><path d="M512 1024C230.4 1024 0 793.6 0 512c0-158.72 71.68-302.08 194.56-399.36 20.48-15.36 56.32-15.36 71.68 10.24 15.36 20.48 10.24 51.2-10.24 66.56C158.72 271.36 102.4 389.12 102.4 512c0 225.28 184.32 409.6 409.6 409.6s409.6-184.32 409.6-409.6c0-128-56.32-240.64-153.6-322.56-20.48-15.36-25.6-51.2-10.24-71.68 15.36-20.48 51.2-25.6 71.68-10.24 122.88 102.4 194.56 245.76 194.56 404.48 0 281.6-230.4 512-512 512z" p-id="4836"></path></svg>