<?xml version="1.0" standalone="no"?><!DOCTYPE svg PUBLIC "-//W3C//DTD SVG 1.1//EN" "http://www.w3.org/Graphics/SVG/1.1/DTD/svg11.dtd"><svg t="1647179315189" class="icon" viewBox="0 0 1024 1024" version="1.1" xmlns="http://www.w3.org/2000/svg" p-id="2725" xmlns:xlink="http://www.w3.org/1999/xlink" width="200" height="200"><defs><style type="text/css"></style></defs><path d="M533.333333 85.333333c-247.426667 0-448 200.573333-448 448s200.573333 448 448 448 448-200.573333 448-448-200.573333-448-448-448z m0 853.333334c-223.86 0-405.333333-181.473333-405.333333-405.333334s181.473333-405.333333 405.333333-405.333333 405.333333 181.473333 405.333334 405.333333-181.473333 405.333333-405.333334 405.333334z m234.666667-405.333334a21.333333 21.333333 0 0 1-21.333333 21.333334H320a21.333333 21.333333 0 0 1 0-42.666667h426.666667a21.333333 21.333333 0 0 1 21.333333 21.333333z" fill="#5C5C66" p-id="2726"></path></svg>