<?xml version="1.0" standalone="no"?><!DOCTYPE svg PUBLIC "-//W3C//DTD SVG 1.1//EN" "http://www.w3.org/Graphics/SVG/1.1/DTD/svg11.dtd"><svg t="1647179244400" class="icon" viewBox="0 0 1024 1024" version="1.1" xmlns="http://www.w3.org/2000/svg" p-id="1929" xmlns:xlink="http://www.w3.org/1999/xlink" width="200" height="200"><defs><style type="text/css"></style></defs><path d="M512 65C265.161 65 65 265.146 65 512c0 246.854 200.161 447 447 447 246.84 0 447-200.146 447-447C959 265.146 758.84 65 512 65zM512 929.2C281.952 929.2 94.8 742.048 94.8 512S281.952 94.8 512 94.8 929.2 281.952 929.2 512 742.048 929.2 512 929.2z" p-id="1930"></path><path d="M526.885 303.4 497.085 303.4 497.085 497.101 303.4 497.101 303.4 526.9 497.085 526.9 497.085 720.6 526.885 720.6 526.885 526.9 720.6 526.9 720.6 497.101 526.885 497.101Z" p-id="1931"></path></svg>